<svg width="680" height="430" viewBox="0 0 680 430" fill="none" xmlns="http://www.w3.org/2000/svg">
<path d="M210 100L479.999 100V148C479.999 153.835 477.682 159.431 473.556 163.556C469.43 167.682 463.834 170 457.999 170H232C226.165 170 220.569 167.682 216.443 163.556C212.317 159.431 210 153.835 210 148V100Z" fill="black"/>
<path d="M102 0L228 0C233.834 0 239.43 2.31785 243.556 6.44365C247.682 10.5695 250 16.1652 250 22V100H79.9995V22C79.9995 16.1652 82.3174 10.5695 86.4432 6.44365C90.569 2.31785 96.1647 0 102 0Z" fill="black"/>
<path d="M22 90H80L80 380H22C16.1652 380 10.5695 377.682 6.44365 373.556C2.31785 369.431 0 363.835 0 358L0 112C0 106.165 2.31785 100.569 6.44365 96.4436C10.5695 92.3178 16.1652 90 22 90Z" fill="black"/>
<path d="M79.9995 360H599.999V408C599.999 413.835 597.682 419.43 593.556 423.556C589.43 427.682 583.834 430 577.999 430H102C96.1647 430 90.569 427.682 86.4432 423.556C82.3174 419.43 79.9995 413.835 79.9995 408V360Z" fill="black"/>
<path d="M600 99.9998H658C663.835 99.9998 669.431 102.318 673.556 106.443C677.682 110.569 680 116.165 680 122V368C680 373.835 677.682 379.43 673.556 383.556C669.431 387.682 663.835 390 658 390H600V99.9998Z" fill="black"/>
<path d="M471.999 0.000244141L597.999 0.000244141C603.834 0.000244141 609.43 2.3181 613.555 6.44389C617.681 10.5697 619.999 16.1655 619.999 22.0002V100H449.999V22.0002C449.999 16.1655 452.317 10.5697 456.443 6.44389C460.568 2.3181 466.164 0.000244141 471.999 0.000244141Z" fill="black"/>
<path d="M309.999 170H389.999V360H309.999V170Z" fill="black"/>
<path d="M250 78C250 94.412 253.96 100 272 100H250V78Z" fill="black"/>
<path d="M449.999 78.0002C449.999 94.4122 446.039 100 427.999 100H449.999V78.0002Z" fill="black"/>
<path d="M309.999 192C309.999 175.588 306.039 170 287.999 170H309.999V192Z" fill="black"/>
<path d="M389.999 192C389.999 175.588 393.959 170 411.999 170H389.999V192Z" fill="black"/>
<path d="M210 122C210 105.588 206.04 100 188 100H210V122Z" fill="black"/>
<path d="M79.9995 68C79.9995 84.412 76.0395 90 57.9995 90H79.9995V68Z" fill="black"/>
<path d="M79.9995 122C79.9995 105.588 83.9595 100 102 100H79.9995V122Z" fill="black"/>
<path d="M79.9995 338C79.9995 354.412 83.9595 360 102 360H79.9995V338Z" fill="black"/>
<path d="M79.9995 402C79.9995 385.588 76.0395 380 57.9995 380H79.9995V402Z" fill="black"/>
<path d="M600 412C600 395.588 603.96 390 622 390H600V412Z" fill="black"/>
<path d="M309.999 338C309.999 354.412 306.039 360 287.999 360H309.999V338Z" fill="black"/>
<path d="M389.999 338C389.999 354.412 393.959 360 411.999 360H389.999V338Z" fill="black"/>
<path d="M600 338C600 354.412 596.04 360 578 360H600V338Z" fill="black"/>
<path d="M620 77.9998C620 94.4118 623.96 99.9998 642 99.9998H620V77.9998Z" fill="black"/>
<path d="M479.999 122C479.999 105.588 483.959 100 501.999 100H479.999V122Z" fill="black"/>
<path d="M600 122C600 105.588 596.04 99.9998 578 99.9998H600V122Z" fill="black"/>
</svg>
