<svg width="517" height="144" viewBox="0 0 517 144" fill="none" xmlns="http://www.w3.org/2000/svg">
<path d="M84.4804 0H104.576V2.688H102.4C102.144 2.688 94.7204 2.944 92.2884 9.216L53.8884 108.8H51.2004L12.2884 9.216C9.85641 2.944 2.43241 2.688 2.17641 2.688H0.000414014V0H39.1684V2.688H36.9924C36.8644 2.688 32.2564 2.688 33.6644 7.936L62.0804 80.768L89.6004 9.216C92.0324 2.81599 86.7844 2.688 86.6564 2.688H84.4804V0ZM136.091 106.112H138.267V108.928H99.0994V106.112H101.275C101.403 106.112 107.803 105.984 107.803 99.584V48.384C107.803 41.984 101.403 41.856 101.275 41.856H99.0994V39.168L128.411 34.816H129.563V99.584C129.563 105.984 135.835 106.112 136.091 106.112ZM118.683 32.64C111.771 32.64 106.139 27.008 106.139 20.096C106.139 13.184 111.771 7.552 118.683 7.552C125.595 7.552 131.227 13.184 131.227 20.096C131.227 27.008 125.595 32.64 118.683 32.64ZM191.334 33.152C208.742 33.152 215.782 44.032 215.782 55.552C215.782 60.672 211.686 64.768 206.566 64.768C201.446 64.768 197.35 60.672 197.35 55.552C197.35 44.032 195.686 36.48 187.494 36.48C181.862 36.48 174.438 41.344 174.438 52.736V99.584C174.438 105.984 180.71 106.112 180.966 106.112H183.142V108.8H143.974V106.112H146.15C146.278 106.112 152.678 105.984 152.678 99.584V48.384C152.678 41.984 146.278 41.856 146.15 41.856H143.974V39.168L173.286 34.816H174.438V41.6C177.766 35.968 183.782 33.152 191.334 33.152ZM296.53 105.088H298.706V107.776L280.658 108.928C274.13 108.8 270.93 105.344 269.522 102.016C267.474 106.112 262.738 110.464 251.218 110.464C228.946 110.464 220.242 100.736 220.242 89.216C220.242 76.672 227.794 66.688 251.218 65.664C264.914 65.152 267.858 58.24 267.858 54.016C267.218 43.776 264.786 35.84 256.722 35.84C248.53 35.84 245.33 44.032 245.33 55.552C245.33 60.672 241.106 64.768 235.986 64.768C230.866 64.768 226.77 60.672 226.77 55.552C226.77 43.52 237.65 33.152 256.722 33.152C278.482 33.152 290.002 47.36 290.002 65.28V98.56C290.002 104.96 296.274 105.088 296.53 105.088ZM255.698 106.624C265.938 106.624 268.114 101.248 268.114 95.744C268.114 95.744 268.114 62.592 268.114 61.312C265.81 64.64 261.714 67.84 254.674 69.888C247.25 71.936 243.154 77.056 243.154 89.216C243.154 100.736 248.018 106.624 255.698 106.624ZM340.451 106.112H342.627V108.928H303.331V106.112H305.635C305.763 106.112 312.163 105.984 312.163 99.584V13.568C312.163 7.168 305.763 7.04 305.635 7.04H303.331V4.352L332.771 0H333.923V99.584C333.923 105.984 340.195 106.112 340.451 106.112ZM363.325 83.84C370.365 83.84 375.869 89.472 375.869 96.384C375.869 103.296 370.365 108.8 363.325 108.8C356.413 108.8 350.909 103.296 350.909 96.384C350.909 89.472 356.413 83.84 363.325 83.84ZM421.326 106.112H423.502V108.928H384.206V106.112H386.51C386.638 106.112 393.038 105.984 393.038 99.584V13.568C393.038 7.168 386.638 7.04 386.51 7.04H384.206V4.352L413.646 0H414.798V99.584C414.798 105.984 421.07 106.112 421.326 106.112ZM495.829 34.816H516.053V37.504H513.877C513.621 37.504 506.069 38.016 503.509 44.032L467.541 130.688C463.701 138.752 459.349 143.744 448.981 143.744C430.549 143.744 422.357 133.376 422.357 121.344C422.357 116.224 426.453 112.128 431.573 112.128C436.693 112.128 440.789 116.224 440.789 121.344C440.789 132.864 443.605 141.056 451.797 141.056C457.173 141.056 461.525 137.728 464.853 130.688L473.941 108.672L438.357 44.032C435.029 38.144 426.965 37.504 426.709 37.504H424.533V34.816H463.701V37.504H461.525C461.269 37.504 456.661 37.76 460.117 44.032L483.285 86.144L500.693 44.032C503.381 37.76 498.261 37.504 498.005 37.504H495.829V34.816Z" fill="white"/>
</svg>
